<?xml version="1.0" encoding="UTF-8"?>
<svg width="1000px" height="1000px" viewBox="0 0 1000 1000" version="1.1" xmlns="http://www.w3.org/2000/svg" xmlns:xlink="http://www.w3.org/1999/xlink">
    <!-- JE Inlining symbols to reduce number of bitmaps we throw around -->
    <!-- symbol for person-->   
  <defs>   
  <symbol id="phone" viewBox="0 0 36 32">
          <polygon  id="path-1" points="16 0 32 9 32 27 16 36 0 27 0 9"></polygon>
          <path d="M19.1953125,22.6855469 C19.2148438,23.121747 19.2929681,23.5449198 19.4296875,23.9550781 L9.96679688,23.9550781 C9.69986846,23.9550781 9.48828203,23.8916022 9.33203125,23.7646484 C9.17578047,23.6376947 9.09765625,23.4375014 9.09765625,23.1640625 L9.09765625,13.4570312 C9.09765625,13.1770819 9.17578047,12.9622403 9.33203125,12.8125 C9.48828203,12.6627597 9.69986846,12.5878906 9.96679688,12.5878906 L23.6875,12.5878906 C23.9609389,12.5878906 24.1692701,12.6627597 24.3125,12.8125 C24.4557299,12.9622403 24.5273438,13.1770819 24.5273438,13.4570312 L24.5273438,16.6503906 C24.2864571,16.6634115 24.0472017,16.6894529 23.8095703,16.7285156 C23.5719389,16.7675783 23.3457042,16.8229163 23.1308594,16.8945312 L23.1308594,15.3027344 L17.2421875,19.8242188 C17.1249994,19.9218755 16.9915372,19.9707031 16.8417969,19.9707031 C16.6855461,19.9707031 16.5488287,19.9218755 16.4316406,19.8242188 L10.4746094,15.3027344 L10.4746094,22.6855469 L19.1953125,22.6855469 Z M10.9238281,13.984375 L16.8417969,18.4570312 L22.75,13.984375 L10.9238281,13.984375 Z M27.7402344,19.0332031 C28.5149778,19.7102898 28.9023438,20.5891873 28.9023438,21.6699219 C28.9023438,22.0670593 28.8486333,22.4283838 28.7412109,22.7539062 C28.6337885,23.0794287 28.4791677,23.3691394 28.2773438,23.6230469 C28.0690094,23.8899753 27.8395195,24.0836583 27.5888672,24.2041016 C27.3382149,24.3245449 27.0631525,24.3847656 26.7636719,24.3847656 C25.9889284,24.3847656 25.6015625,24.0266963 25.6015625,23.3105469 L25.5820312,23.3105469 C25.3346342,24.0266963 24.8626337,24.3847656 24.1660156,24.3847656 C23.7037737,24.3847656 23.3424492,24.2187517 23.0820312,23.8867188 C22.9388014,23.7174471 22.8313806,23.5237641 22.7597656,23.3056641 C22.6881507,23.087564 22.6523438,22.8320327 22.6523438,22.5390625 C22.6523438,21.7838504 22.8443991,21.1490911 23.2285156,20.6347656 C23.4108082,20.393879 23.6256498,20.2099616 23.8730469,20.0830078 C24.1204439,19.9560541 24.4003891,19.8925781 24.7128906,19.8925781 C24.8365892,19.8925781 24.9488927,19.9104816 25.0498047,19.9462891 C25.1507167,19.9820965 25.2467443,20.0358069 25.3378906,20.1074219 C25.4355474,20.1725264 25.5136716,20.2408851 25.5722656,20.3125 C25.6308597,20.3841149 25.673177,20.4687495 25.6992188,20.5664062 L25.7285156,20.5664062 C25.7285156,20.5143227 25.7333984,20.4427088 25.7431641,20.3515625 C25.7529297,20.2604162 25.7708332,20.1399747 25.796875,19.9902344 L26.6171875,19.9902344 C26.5455726,20.8756555 26.4918622,21.5429665 26.4560547,21.9921875 C26.4202472,22.4414085 26.4023438,22.672526 26.4023438,22.6855469 C26.4023438,23.3561231 26.5683577,23.6914062 26.9003906,23.6914062 C27.2063817,23.6914062 27.4733062,23.5058612 27.7011719,23.1347656 C27.7923182,22.9459626 27.8655596,22.731121 27.9208984,22.4902344 C27.9762373,22.2493478 28.0039062,21.975913 28.0039062,21.6699219 C28.0039062,20.817053 27.720706,20.1106799 27.1542969,19.5507812 C26.5943982,19.010414 25.8131561,18.7402344 24.8105469,18.7402344 C23.8730422,18.7402344 23.0918,19.0722623 22.4667969,19.7363281 C21.8352833,20.3938835 21.5195312,21.2239533 21.5195312,22.2265625 C21.5195312,23.2291717 21.8157522,24.0266897 22.4082031,24.6191406 C23.0201854,25.2311229 23.8372345,25.5371094 24.859375,25.5371094 C25.2565124,25.5371094 25.6276024,25.50293 25.9726562,25.4345703 C26.3177101,25.3662106 26.6367173,25.2571622 26.9296875,25.1074219 L26.9296875,25.8984375 C26.3307262,26.1393241 25.5918013,26.2597656 24.7128906,26.2597656 C23.4824157,26.2597656 22.4928423,25.8886756 21.7441406,25.1464844 C20.9889285,24.4108036 20.6113281,23.4537819 20.6113281,22.2753906 C20.6113281,21.0514262 21.0117147,20.0325562 21.8125,19.21875 C22.6067748,18.4049438 23.6223896,17.9980469 24.859375,17.9980469 C26.0507872,17.9980469 27.0110641,18.3430955 27.7402344,19.0332031 Z M25.2988281,23.1152344 C25.3899744,22.9199209 25.4632159,22.6969414 25.5185547,22.4462891 C25.5738935,22.1956368 25.6015625,21.9140641 25.6015625,21.6015625 C25.6015625,20.9440071 25.3378933,20.6152344 24.8105469,20.6152344 C24.4459617,20.6152344 24.1432304,20.8007794 23.9023438,21.171875 C23.7916661,21.3476571 23.7070315,21.5462229 23.6484375,21.7675781 C23.5898435,21.9889334 23.5605469,22.2363268 23.5605469,22.5097656 C23.5605469,22.8873717 23.6419263,23.1673168 23.8046875,23.3496094 C23.9544278,23.5774751 24.1529936,23.6914062 24.4003906,23.6914062 C24.5957041,23.6914062 24.7666008,23.6425786 24.9130859,23.5449219 C25.059571,23.4472651 25.1881505,23.3040374 25.2988281,23.1152344 Z" id="📧" fill="#FFFFFF"></path>
             
  </symbol>
    <symbol id="name" viewBox="0 0 36 32">
          <polygon  id="path-1" points="16 0 32 9 32 27 16 36 0 27 0 9"></polygon>
          
              <path d="M15.6621094,12.1289062 C15.2519511,11.9010405 14.9215507,11.5820333 14.6708984,11.171875 C14.4202461,10.7617167 14.2949219,10.3092473 14.2949219,9.81445312 C14.2949219,9.44335752 14.3649082,9.09505371 14.5048828,8.76953125 C14.6448575,8.44400879 14.8369128,8.15918091 15.0810547,7.91503906 C15.3251965,7.67089722 15.6100244,7.47884185 15.9355469,7.33886719 C16.2610693,7.19889253 16.6093731,7.12890625 16.9804688,7.12890625 C17.3515644,7.12890625 17.7014958,7.19889253 18.0302734,7.33886719 C18.3590511,7.47884185 18.6455066,7.67089722 18.8896484,7.91503906 C19.1337903,8.15918091 19.3258457,8.44400879 19.4658203,8.76953125 C19.605795,9.09505371 19.6757812,9.44335752 19.6757812,9.81445312 C19.6757812,10.3092473 19.5537122,10.7617167 19.3095703,11.171875 C19.0654285,11.5820333 18.7382833,11.9010405 18.328125,12.1289062 C18.1197906,12.2460943 17.9065766,12.3388668 17.6884766,12.4072266 C17.4703765,12.4755863 17.2343763,12.5097656 16.9804688,12.5097656 C16.7395821,12.5097656 16.5084646,12.4755863 16.2871094,12.4072266 C16.0657541,12.3388668 15.8574229,12.2460943 15.6621094,12.1289062 Z M23.5429688,20.1953125 L23.8359375,22.8125 L23.8359375,22.8515625 C23.8359375,23.046876 23.7740892,23.2177727 23.6503906,23.3642578 C23.5266921,23.5107429 23.3704437,23.5904947 23.1816406,23.6035156 L22.8691406,23.6523438 L22.8203125,23.6523438 C22.6380199,23.6523438 22.4833991,23.5807299 22.3564453,23.4375 C22.2294916,23.2942701 22.1595053,23.1282562 22.1464844,22.9394531 L21.5703125,19.6191406 C21.4986976,19.3261704 21.4319665,19.1129564 21.3701172,18.9794922 C21.3082679,18.846028 21.2089851,18.7792969 21.0722656,18.7792969 C20.961588,18.7792969 20.8899741,18.8639314 20.8574219,19.0332031 C20.8248696,19.2024748 20.8085938,19.4140612 20.8085938,19.6679688 C20.8085938,19.8242195 20.8134765,19.9951163 20.8232422,20.1806641 C20.8330079,20.3662119 20.844401,20.5566396 20.8574219,20.7519531 L21.0917969,22.265625 C21.1308596,22.4348967 21.156901,22.6106762 21.1699219,22.7929688 C21.1829428,22.9752613 21.1894531,23.1380201 21.1894531,23.28125 C21.1894531,23.470053 21.1666669,23.6539705 21.1210938,23.8330078 C21.0755206,24.0120452 20.9876309,24.1601557 20.8574219,24.2773438 C20.7272129,24.3880214 20.5367851,24.4873042 20.2861328,24.5751953 C20.0354805,24.6630864 19.7392595,24.739583 19.3974609,24.8046875 C19.0556624,24.869792 18.6813171,24.9186196 18.2744141,24.9511719 C17.867511,24.9837241 17.4459657,25 17.0097656,25 L16.9121094,25 C16.4693988,25 16.0445984,24.9837241 15.6376953,24.9511719 C15.2307922,24.9186196 14.856447,24.869792 14.5146484,24.8046875 C14.1728499,24.739583 13.8766289,24.6630864 13.6259766,24.5751953 C13.3753243,24.4873042 13.1881517,24.3880214 13.0644531,24.2773438 C12.9342441,24.1601557 12.8463544,24.0120452 12.8007812,23.8330078 C12.7552081,23.6539705 12.7324219,23.470053 12.7324219,23.28125 C12.7324219,23.2291664 12.7356771,23.1591801 12.7421875,23.0712891 C12.7486979,22.983398 12.7568359,22.8906255 12.7666016,22.7929688 C12.7763672,22.695312 12.7861328,22.6009119 12.7958984,22.5097656 C12.8056641,22.4186193 12.8170572,22.3372399 12.8300781,22.265625 L13.0644531,20.7519531 C13.077474,20.5566396 13.0888671,20.3662119 13.0986328,20.1806641 C13.1083985,19.9951163 13.1132812,19.8242195 13.1132812,19.6679688 C13.1132812,19.4140612 13.0970054,19.2024748 13.0644531,19.0332031 C13.0319009,18.8639314 12.9765629,18.7792969 12.8984375,18.7792969 C12.7682285,18.7792969 12.655925,18.8541659 12.5615234,19.0039062 C12.4671219,19.1536466 12.403646,19.3261709 12.3710938,19.5214844 L11.7753906,22.9394531 C11.7428384,23.1282562 11.6630866,23.2942701 11.5361328,23.4375 C11.4091791,23.5807299 11.2610686,23.6523438 11.0917969,23.6523438 L11.0527344,23.6523438 L10.7109375,23.6035156 C10.5351554,23.5904947 10.3870449,23.5107429 10.2666016,23.3642578 C10.1461583,23.2177727 10.0859375,23.046876 10.0859375,22.8515625 L10.0859375,22.8125 L10.3496094,20.1953125 C10.3886721,19.8307273 10.4293618,19.472658 10.4716797,19.1210938 C10.5139976,18.7695295 10.5693356,18.4244809 10.6376953,18.0859375 C10.706055,17.7473941 10.7906896,17.4153662 10.8916016,17.0898438 C10.9925135,16.7643213 11.1178378,16.4453141 11.2675781,16.1328125 C11.4498707,15.7617169 11.6728502,15.4427097 11.9365234,15.1757812 C12.2001966,14.9088528 12.4915349,14.6858733 12.8105469,14.5068359 C13.1295589,14.3277986 13.4664696,14.1829433 13.8212891,14.0722656 C14.1761085,13.961588 14.5358055,13.878581 14.9003906,13.8232422 C15.2649758,13.7679034 15.6279279,13.7304688 15.9892578,13.7109375 C16.3505877,13.6914062 16.6907536,13.6816406 17.0097656,13.6816406 C17.5436225,13.6816406 18.0921196,13.7141924 18.6552734,13.7792969 C19.2184273,13.8444014 19.7539037,13.9664705 20.2617188,14.1455078 C20.7695338,14.3245452 21.2333963,14.5735661 21.6533203,14.8925781 C22.0732443,15.2115901 22.4068998,15.6249975 22.6542969,16.1328125 C22.8040372,16.4453141 22.9277339,16.7643213 23.0253906,17.0898438 C23.1230474,17.4153662 23.2044268,17.7473941 23.2695312,18.0859375 C23.3346357,18.4244809 23.3867186,18.7695295 23.4257812,19.1210938 C23.4648439,19.472658 23.5039061,19.8307273 23.5429688,20.1953125 Z" id="👤" fill="#FFFFFF">
          </path>
  </symbol>
      <symbol id="email" viewBox="0 0 36 32">
          <polygon  id="path-1" points="16 0 32 9 32 27 16 36 0 27 0 9"></polygon>
          <path d="M22.15625,24.5214844 C22.2083336,24.6386725 22.234375,24.7526036 22.234375,24.8632812 C22.234375,25.019532 22.1936853,25.1643874 22.1123047,25.2978516 C22.0309241,25.4313158 21.9186205,25.5338538 21.7753906,25.6054688 L21.0527344,25.9179688 C20.5123671,26.1588554 19.955732,26.2792969 19.3828125,26.2792969 C18.9205706,26.2792969 18.464846,26.2044278 18.015625,26.0546875 C17.566404,25.9049472 17.1367208,25.6901056 16.7265625,25.4101562 C16.3164042,25.1302069 15.9306659,24.7932962 15.5693359,24.3994141 C15.208006,24.0055319 14.884116,23.5677107 14.5976562,23.0859375 C14.4218741,22.8124986 14.2330739,22.5032569 14.03125,22.1582031 C13.8619783,21.8652329 13.6699229,21.5153015 13.4550781,21.1083984 C13.2402333,20.7014954 13.0221365,20.2506535 12.8007812,19.7558594 C12.2734349,18.590489 11.9137379,17.5651086 11.7216797,16.6796875 C11.5296214,15.7942664 11.4335938,15.0520863 11.4335938,14.453125 C11.4335938,13.9713518 11.484049,13.5058616 11.5849609,13.0566406 C11.6858729,12.6074196 11.8404938,12.1907571 12.0488281,11.8066406 C12.2571625,11.4225241 12.5175766,11.0791031 12.8300781,10.7763672 C13.1425797,10.4736313 13.5136697,10.2278655 13.9433594,10.0390625 L14.6660156,9.7265625 C14.7832037,9.67447891 14.8938797,9.6484375 14.9980469,9.6484375 C15.1542977,9.6484375 15.3007806,9.69238237 15.4375,9.78027344 C15.5742194,9.8681645 15.6783851,9.98697842 15.75,10.1367188 L17.0878906,13.1347656 C17.1399742,13.2519537 17.1660156,13.3626297 17.1660156,13.4667969 C17.1660156,13.6230477 17.1204432,13.7695306 17.0292969,13.90625 C16.9381506,14.0429694 16.8144539,14.1471351 16.6582031,14.21875 L15.2910156,14.84375 C15.0826813,14.9414067 14.9329432,15.0651034 14.8417969,15.2148438 C14.7506506,15.3645841 14.7050781,15.5338532 14.7050781,15.7226562 C14.7050781,15.7877607 14.7099609,15.8528643 14.7197266,15.9179688 C14.7294922,15.9830732 14.7506509,16.0481768 14.7832031,16.1132812 L17.0683594,21.2304688 C17.1529952,21.4127613 17.2750643,21.5511063 17.4345703,21.6455078 C17.5940763,21.7399093 17.764973,21.7871094 17.9472656,21.7871094 C18.0709642,21.7871094 18.2011712,21.761068 18.3378906,21.7089844 L19.734375,21.09375 C19.8450526,21.0481769 19.9589838,21.0253906 20.0761719,21.0253906 C20.2389331,21.0253906 20.3870436,21.0660803 20.5205078,21.1474609 C20.653972,21.2288416 20.7532549,21.3444003 20.8183594,21.4941406 L22.15625,24.5214844 Z" id="📞" fill="#FFFFFF"></path>
         
  </symbol>
  <symbol id="uid_a" viewBox="0 0 36 32">>
          <circle  cx="16" cy="16" r="2" fill="black"/>
          <!--<polygon  id="path-1" points="16 0 32 9 32 27 16 36 0 27 0 9"></polygon>-->
  </symbol>
  <symbol id="uid_b" viewBox="0 0 36 32">> 
          <polygon  id="path-1" points="16 0 32 9 32 27 16 36 0 27 0 9"></polygon>  
  </symbol>
</defs>

  </svg>