<?xml version="1.0" encoding="UTF-8"?>
<svg width="34px" height="36px" viewBox="0 0 34 36" version="1.1" xmlns="http://www.w3.org/2000/svg" xmlns:xlink="http://www.w3.org/1999/xlink">
    <!-- Generator: Sketch 49 (51002) - http://www.bohemiancoding.com/sketch -->
    <title>ChartSymbol/phone</title>
    <desc>Created with Sketch.</desc>
    <defs>
        <polygon id="path-1" points="17 0 31.7224319 9 31.7224319 27 17 36 2.27756814 27 2.27756814 9"></polygon>
    </defs>
    <g id="ChartSymbol/phone" stroke="none" stroke-width="1" fill="none" fill-rule="evenodd">
        <g id="Rectangle-2">
            <mask id="mask-2" fill="white">
                <use xlink:href="#path-1"></use>
            </mask>
            <use id="Mask" fill="#000000" xlink:href="#path-1"></use>
            <g id="color/red" mask="url(#mask-2)" fill="#D0021B">
                <rect id="Rectangle-2" x="0" y="0" width="34" height="36"></rect>
            </g>
        </g>
        <path d="M19.1953125,22.6855469 C19.2148438,23.121747 19.2929681,23.5449198 19.4296875,23.9550781 L9.96679688,23.9550781 C9.69986846,23.9550781 9.48828203,23.8916022 9.33203125,23.7646484 C9.17578047,23.6376947 9.09765625,23.4375014 9.09765625,23.1640625 L9.09765625,13.4570312 C9.09765625,13.1770819 9.17578047,12.9622403 9.33203125,12.8125 C9.48828203,12.6627597 9.69986846,12.5878906 9.96679688,12.5878906 L23.6875,12.5878906 C23.9609389,12.5878906 24.1692701,12.6627597 24.3125,12.8125 C24.4557299,12.9622403 24.5273438,13.1770819 24.5273438,13.4570312 L24.5273438,16.6503906 C24.2864571,16.6634115 24.0472017,16.6894529 23.8095703,16.7285156 C23.5719389,16.7675783 23.3457042,16.8229163 23.1308594,16.8945312 L23.1308594,15.3027344 L17.2421875,19.8242188 C17.1249994,19.9218755 16.9915372,19.9707031 16.8417969,19.9707031 C16.6855461,19.9707031 16.5488287,19.9218755 16.4316406,19.8242188 L10.4746094,15.3027344 L10.4746094,22.6855469 L19.1953125,22.6855469 Z M10.9238281,13.984375 L16.8417969,18.4570312 L22.75,13.984375 L10.9238281,13.984375 Z M27.7402344,19.0332031 C28.5149778,19.7102898 28.9023438,20.5891873 28.9023438,21.6699219 C28.9023438,22.0670593 28.8486333,22.4283838 28.7412109,22.7539062 C28.6337885,23.0794287 28.4791677,23.3691394 28.2773438,23.6230469 C28.0690094,23.8899753 27.8395195,24.0836583 27.5888672,24.2041016 C27.3382149,24.3245449 27.0631525,24.3847656 26.7636719,24.3847656 C25.9889284,24.3847656 25.6015625,24.0266963 25.6015625,23.3105469 L25.5820312,23.3105469 C25.3346342,24.0266963 24.8626337,24.3847656 24.1660156,24.3847656 C23.7037737,24.3847656 23.3424492,24.2187517 23.0820312,23.8867188 C22.9388014,23.7174471 22.8313806,23.5237641 22.7597656,23.3056641 C22.6881507,23.087564 22.6523438,22.8320327 22.6523438,22.5390625 C22.6523438,21.7838504 22.8443991,21.1490911 23.2285156,20.6347656 C23.4108082,20.393879 23.6256498,20.2099616 23.8730469,20.0830078 C24.1204439,19.9560541 24.4003891,19.8925781 24.7128906,19.8925781 C24.8365892,19.8925781 24.9488927,19.9104816 25.0498047,19.9462891 C25.1507167,19.9820965 25.2467443,20.0358069 25.3378906,20.1074219 C25.4355474,20.1725264 25.5136716,20.2408851 25.5722656,20.3125 C25.6308597,20.3841149 25.673177,20.4687495 25.6992188,20.5664062 L25.7285156,20.5664062 C25.7285156,20.5143227 25.7333984,20.4427088 25.7431641,20.3515625 C25.7529297,20.2604162 25.7708332,20.1399747 25.796875,19.9902344 L26.6171875,19.9902344 C26.5455726,20.8756555 26.4918622,21.5429665 26.4560547,21.9921875 C26.4202472,22.4414085 26.4023438,22.672526 26.4023438,22.6855469 C26.4023438,23.3561231 26.5683577,23.6914062 26.9003906,23.6914062 C27.2063817,23.6914062 27.4733062,23.5058612 27.7011719,23.1347656 C27.7923182,22.9459626 27.8655596,22.731121 27.9208984,22.4902344 C27.9762373,22.2493478 28.0039062,21.975913 28.0039062,21.6699219 C28.0039062,20.817053 27.720706,20.1106799 27.1542969,19.5507812 C26.5943982,19.010414 25.8131561,18.7402344 24.8105469,18.7402344 C23.8730422,18.7402344 23.0918,19.0722623 22.4667969,19.7363281 C21.8352833,20.3938835 21.5195312,21.2239533 21.5195312,22.2265625 C21.5195312,23.2291717 21.8157522,24.0266897 22.4082031,24.6191406 C23.0201854,25.2311229 23.8372345,25.5371094 24.859375,25.5371094 C25.2565124,25.5371094 25.6276024,25.50293 25.9726562,25.4345703 C26.3177101,25.3662106 26.6367173,25.2571622 26.9296875,25.1074219 L26.9296875,25.8984375 C26.3307262,26.1393241 25.5918013,26.2597656 24.7128906,26.2597656 C23.4824157,26.2597656 22.4928423,25.8886756 21.7441406,25.1464844 C20.9889285,24.4108036 20.6113281,23.4537819 20.6113281,22.2753906 C20.6113281,21.0514262 21.0117147,20.0325562 21.8125,19.21875 C22.6067748,18.4049438 23.6223896,17.9980469 24.859375,17.9980469 C26.0507872,17.9980469 27.0110641,18.3430955 27.7402344,19.0332031 Z M25.2988281,23.1152344 C25.3899744,22.9199209 25.4632159,22.6969414 25.5185547,22.4462891 C25.5738935,22.1956368 25.6015625,21.9140641 25.6015625,21.6015625 C25.6015625,20.9440071 25.3378933,20.6152344 24.8105469,20.6152344 C24.4459617,20.6152344 24.1432304,20.8007794 23.9023438,21.171875 C23.7916661,21.3476571 23.7070315,21.5462229 23.6484375,21.7675781 C23.5898435,21.9889334 23.5605469,22.2363268 23.5605469,22.5097656 C23.5605469,22.8873717 23.6419263,23.1673168 23.8046875,23.3496094 C23.9544278,23.5774751 24.1529936,23.6914062 24.4003906,23.6914062 C24.5957041,23.6914062 24.7666008,23.6425786 24.9130859,23.5449219 C25.059571,23.4472651 25.1881505,23.3040374 25.2988281,23.1152344 Z" id="📧" fill="#FFFFFF"></path>
    </g>
</svg>