<?xml version="1.0" encoding="UTF-8"?>
<svg width="34px" height="36px" viewBox="0 0 34 36" version="1.1" xmlns="http://www.w3.org/2000/svg" xmlns:xlink="http://www.w3.org/1999/xlink">
    <!-- Generator: Sketch 49 (51002) - http://www.bohemiancoding.com/sketch -->
    <title>ChartSymbol/seller</title>
    <desc>Created with Sketch.</desc>
    <defs>
        <polygon id="path-1" points="17 0 31.7224319 9 31.7224319 27 17 36 2.27756814 27 2.27756814 9"></polygon>
    </defs>
    <g id="ChartSymbol/seller" stroke="none" stroke-width="1" fill="none" fill-rule="evenodd">
        <g id="Rectangle-2">
            <mask id="mask-2" fill="white">
                <use xlink:href="#path-1"></use>
            </mask>
            <use id="Mask" fill="#000000" xlink:href="#path-1"></use>
            <g id="color/red" mask="url(#mask-2)" fill="#D0021B">
                <rect id="Rectangle-2" x="0" y="0" width="34" height="36"></rect>
            </g>
        </g>
        <path d="M15.6621094,12.1289062 C15.2519511,11.9010405 14.9215507,11.5820333 14.6708984,11.171875 C14.4202461,10.7617167 14.2949219,10.3092473 14.2949219,9.81445312 C14.2949219,9.44335752 14.3649082,9.09505371 14.5048828,8.76953125 C14.6448575,8.44400879 14.8369128,8.15918091 15.0810547,7.91503906 C15.3251965,7.67089722 15.6100244,7.47884185 15.9355469,7.33886719 C16.2610693,7.19889253 16.6093731,7.12890625 16.9804688,7.12890625 C17.3515644,7.12890625 17.7014958,7.19889253 18.0302734,7.33886719 C18.3590511,7.47884185 18.6455066,7.67089722 18.8896484,7.91503906 C19.1337903,8.15918091 19.3258457,8.44400879 19.4658203,8.76953125 C19.605795,9.09505371 19.6757812,9.44335752 19.6757812,9.81445312 C19.6757812,10.3092473 19.5537122,10.7617167 19.3095703,11.171875 C19.0654285,11.5820333 18.7382833,11.9010405 18.328125,12.1289062 C18.1197906,12.2460943 17.9065766,12.3388668 17.6884766,12.4072266 C17.4703765,12.4755863 17.2343763,12.5097656 16.9804688,12.5097656 C16.7395821,12.5097656 16.5084646,12.4755863 16.2871094,12.4072266 C16.0657541,12.3388668 15.8574229,12.2460943 15.6621094,12.1289062 Z M23.5429688,20.1953125 L23.8359375,22.8125 L23.8359375,22.8515625 C23.8359375,23.046876 23.7740892,23.2177727 23.6503906,23.3642578 C23.5266921,23.5107429 23.3704437,23.5904947 23.1816406,23.6035156 L22.8691406,23.6523438 L22.8203125,23.6523438 C22.6380199,23.6523438 22.4833991,23.5807299 22.3564453,23.4375 C22.2294916,23.2942701 22.1595053,23.1282562 22.1464844,22.9394531 L21.5703125,19.6191406 C21.4986976,19.3261704 21.4319665,19.1129564 21.3701172,18.9794922 C21.3082679,18.846028 21.2089851,18.7792969 21.0722656,18.7792969 C20.961588,18.7792969 20.8899741,18.8639314 20.8574219,19.0332031 C20.8248696,19.2024748 20.8085938,19.4140612 20.8085938,19.6679688 C20.8085938,19.8242195 20.8134765,19.9951163 20.8232422,20.1806641 C20.8330079,20.3662119 20.844401,20.5566396 20.8574219,20.7519531 L21.0917969,22.265625 C21.1308596,22.4348967 21.156901,22.6106762 21.1699219,22.7929688 C21.1829428,22.9752613 21.1894531,23.1380201 21.1894531,23.28125 C21.1894531,23.470053 21.1666669,23.6539705 21.1210938,23.8330078 C21.0755206,24.0120452 20.9876309,24.1601557 20.8574219,24.2773438 C20.7272129,24.3880214 20.5367851,24.4873042 20.2861328,24.5751953 C20.0354805,24.6630864 19.7392595,24.739583 19.3974609,24.8046875 C19.0556624,24.869792 18.6813171,24.9186196 18.2744141,24.9511719 C17.867511,24.9837241 17.4459657,25 17.0097656,25 L16.9121094,25 C16.4693988,25 16.0445984,24.9837241 15.6376953,24.9511719 C15.2307922,24.9186196 14.856447,24.869792 14.5146484,24.8046875 C14.1728499,24.739583 13.8766289,24.6630864 13.6259766,24.5751953 C13.3753243,24.4873042 13.1881517,24.3880214 13.0644531,24.2773438 C12.9342441,24.1601557 12.8463544,24.0120452 12.8007812,23.8330078 C12.7552081,23.6539705 12.7324219,23.470053 12.7324219,23.28125 C12.7324219,23.2291664 12.7356771,23.1591801 12.7421875,23.0712891 C12.7486979,22.983398 12.7568359,22.8906255 12.7666016,22.7929688 C12.7763672,22.695312 12.7861328,22.6009119 12.7958984,22.5097656 C12.8056641,22.4186193 12.8170572,22.3372399 12.8300781,22.265625 L13.0644531,20.7519531 C13.077474,20.5566396 13.0888671,20.3662119 13.0986328,20.1806641 C13.1083985,19.9951163 13.1132812,19.8242195 13.1132812,19.6679688 C13.1132812,19.4140612 13.0970054,19.2024748 13.0644531,19.0332031 C13.0319009,18.8639314 12.9765629,18.7792969 12.8984375,18.7792969 C12.7682285,18.7792969 12.655925,18.8541659 12.5615234,19.0039062 C12.4671219,19.1536466 12.403646,19.3261709 12.3710938,19.5214844 L11.7753906,22.9394531 C11.7428384,23.1282562 11.6630866,23.2942701 11.5361328,23.4375 C11.4091791,23.5807299 11.2610686,23.6523438 11.0917969,23.6523438 L11.0527344,23.6523438 L10.7109375,23.6035156 C10.5351554,23.5904947 10.3870449,23.5107429 10.2666016,23.3642578 C10.1461583,23.2177727 10.0859375,23.046876 10.0859375,22.8515625 L10.0859375,22.8125 L10.3496094,20.1953125 C10.3886721,19.8307273 10.4293618,19.472658 10.4716797,19.1210938 C10.5139976,18.7695295 10.5693356,18.4244809 10.6376953,18.0859375 C10.706055,17.7473941 10.7906896,17.4153662 10.8916016,17.0898438 C10.9925135,16.7643213 11.1178378,16.4453141 11.2675781,16.1328125 C11.4498707,15.7617169 11.6728502,15.4427097 11.9365234,15.1757812 C12.2001966,14.9088528 12.4915349,14.6858733 12.8105469,14.5068359 C13.1295589,14.3277986 13.4664696,14.1829433 13.8212891,14.0722656 C14.1761085,13.961588 14.5358055,13.878581 14.9003906,13.8232422 C15.2649758,13.7679034 15.6279279,13.7304688 15.9892578,13.7109375 C16.3505877,13.6914062 16.6907536,13.6816406 17.0097656,13.6816406 C17.5436225,13.6816406 18.0921196,13.7141924 18.6552734,13.7792969 C19.2184273,13.8444014 19.7539037,13.9664705 20.2617188,14.1455078 C20.7695338,14.3245452 21.2333963,14.5735661 21.6533203,14.8925781 C22.0732443,15.2115901 22.4068998,15.6249975 22.6542969,16.1328125 C22.8040372,16.4453141 22.9277339,16.7643213 23.0253906,17.0898438 C23.1230474,17.4153662 23.2044268,17.7473941 23.2695312,18.0859375 C23.3346357,18.4244809 23.3867186,18.7695295 23.4257812,19.1210938 C23.4648439,19.472658 23.5039061,19.8307273 23.5429688,20.1953125 Z" id="👤" fill="#FFFFFF"></path>
    </g>
</svg>