<?xml version="1.0" encoding="UTF-8"?>
<svg width="30px" height="36px" viewBox="0 0 30 36" version="1.1" xmlns="http://www.w3.org/2000/svg" xmlns:xlink="http://www.w3.org/1999/xlink">
    <!-- Generator: Sketch 49.1 (51147) - http://www.bohemiancoding.com/sketch -->
    <title>sym/phone</title>
    <desc>Created with Sketch.</desc>
    <defs>
        <polygon id="path-1" points="17 0 31.7224319 9 31.7224319 27 17 36 2.27756814 27 2.27756814 9"></polygon>
    </defs>
    <g id="alternate,-more-chart" stroke="none" stroke-width="1" fill="none" fill-rule="evenodd">
        <g id="iPhone-8" transform="translate(-41.000000, -99.000000)">
            <g id="ChartSymbol/email" transform="translate(39.000000, 99.000000)">
                <g id="Rectangle-2" stroke-width="1">
                    <mask id="mask-2" fill="white">
                        <use xlink:href="#path-1"></use>
                    </mask>
                    <use id="Mask" fill="#000000" xlink:href="#path-1"></use>
                    <g id="color/green" mask="url(#mask-2)" fill="#417505">
                        <rect id="Rectangle-2" x="0" y="0" width="34" height="36"></rect>
                    </g>
                </g>
                <path d="M22.15625,24.5214844 C22.2083336,24.6386725 22.234375,24.7526036 22.234375,24.8632812 C22.234375,25.019532 22.1936853,25.1643874 22.1123047,25.2978516 C22.0309241,25.4313158 21.9186205,25.5338538 21.7753906,25.6054688 L21.0527344,25.9179688 C20.5123671,26.1588554 19.955732,26.2792969 19.3828125,26.2792969 C18.9205706,26.2792969 18.464846,26.2044278 18.015625,26.0546875 C17.566404,25.9049472 17.1367208,25.6901056 16.7265625,25.4101562 C16.3164042,25.1302069 15.9306659,24.7932962 15.5693359,24.3994141 C15.208006,24.0055319 14.884116,23.5677107 14.5976562,23.0859375 C14.4218741,22.8124986 14.2330739,22.5032569 14.03125,22.1582031 C13.8619783,21.8652329 13.6699229,21.5153015 13.4550781,21.1083984 C13.2402333,20.7014954 13.0221365,20.2506535 12.8007812,19.7558594 C12.2734349,18.590489 11.9137379,17.5651086 11.7216797,16.6796875 C11.5296214,15.7942664 11.4335938,15.0520863 11.4335938,14.453125 C11.4335938,13.9713518 11.484049,13.5058616 11.5849609,13.0566406 C11.6858729,12.6074196 11.8404938,12.1907571 12.0488281,11.8066406 C12.2571625,11.4225241 12.5175766,11.0791031 12.8300781,10.7763672 C13.1425797,10.4736313 13.5136697,10.2278655 13.9433594,10.0390625 L14.6660156,9.7265625 C14.7832037,9.67447891 14.8938797,9.6484375 14.9980469,9.6484375 C15.1542977,9.6484375 15.3007806,9.69238237 15.4375,9.78027344 C15.5742194,9.8681645 15.6783851,9.98697842 15.75,10.1367188 L17.0878906,13.1347656 C17.1399742,13.2519537 17.1660156,13.3626297 17.1660156,13.4667969 C17.1660156,13.6230477 17.1204432,13.7695306 17.0292969,13.90625 C16.9381506,14.0429694 16.8144539,14.1471351 16.6582031,14.21875 L15.2910156,14.84375 C15.0826813,14.9414067 14.9329432,15.0651034 14.8417969,15.2148438 C14.7506506,15.3645841 14.7050781,15.5338532 14.7050781,15.7226562 C14.7050781,15.7877607 14.7099609,15.8528643 14.7197266,15.9179688 C14.7294922,15.9830732 14.7506509,16.0481768 14.7832031,16.1132812 L17.0683594,21.2304688 C17.1529952,21.4127613 17.2750643,21.5511063 17.4345703,21.6455078 C17.5940763,21.7399093 17.764973,21.7871094 17.9472656,21.7871094 C18.0709642,21.7871094 18.2011712,21.761068 18.3378906,21.7089844 L19.734375,21.09375 C19.8450526,21.0481769 19.9589838,21.0253906 20.0761719,21.0253906 C20.2389331,21.0253906 20.3870436,21.0660803 20.5205078,21.1474609 C20.653972,21.2288416 20.7532549,21.3444003 20.8183594,21.4941406 L22.15625,24.5214844 Z" id="📞" fill="#FFFFFF"></path>
            </g>
        </g>
    </g>
</svg>